<svg aria-hidden="true" style="position: absolute; width: 0; height: 0; overflow: hidden;" version="1.1" xmlns="http://www.w3.org/2000/svg" xmlns:xlink="http://www.w3.org/1999/xlink">
<defs>
<symbol id="icon-twitter" viewBox="0 0 32 32">
<path d="M32 6.078c-1.19 0.522-2.458 0.868-3.78 1.036 1.36-0.812 2.398-2.088 2.886-3.626-1.268 0.756-2.668 1.29-4.16 1.588-1.204-1.282-2.92-2.076-4.792-2.076-3.632 0-6.556 2.948-6.556 6.562 0 0.52 0.044 1.020 0.152 1.496-5.454-0.266-10.28-2.88-13.522-6.862-0.566 0.982-0.898 2.106-0.898 3.316 0 2.272 1.17 4.286 2.914 5.452-1.054-0.020-2.088-0.326-2.964-0.808 0 0.020 0 0.046 0 0.072 0 3.188 2.274 5.836 5.256 6.446-0.534 0.146-1.116 0.216-1.72 0.216-0.42 0-0.844-0.024-1.242-0.112 0.85 2.598 3.262 4.508 6.13 4.57-2.232 1.746-5.066 2.798-8.134 2.798-0.538 0-1.054-0.024-1.57-0.090 2.906 1.874 6.35 2.944 10.064 2.944 12.072 0 18.672-10 18.672-18.668 0-0.29-0.010-0.57-0.024-0.848 1.302-0.924 2.396-2.078 3.288-3.406z"></path>
</symbol>
<symbol id="icon-instagram" viewBox="0 0 32 32">
<path d="M31.969 9.408c-0.075-1.7-0.35-2.869-0.744-3.882-0.406-1.075-1.032-2.038-1.851-2.838-0.8-0.813-1.769-1.444-2.832-1.844-1.019-0.394-2.182-0.669-3.882-0.744-1.713-0.081-2.257-0.1-6.601-0.1s-4.888 0.019-6.595 0.094c-1.7 0.075-2.869 0.35-3.882 0.744-1.075 0.406-2.038 1.031-2.838 1.85-0.813 0.8-1.444 1.769-1.844 2.832-0.394 1.019-0.669 2.182-0.744 3.882-0.081 1.713-0.1 2.257-0.1 6.601s0.019 4.888 0.094 6.595c0.075 1.7 0.35 2.869 0.744 3.882 0.406 1.075 1.038 2.038 1.85 2.838 0.8 0.813 1.769 1.444 2.832 1.844 1.019 0.394 2.182 0.669 3.882 0.744 1.706 0.075 2.25 0.094 6.595 0.094s4.888-0.019 6.595-0.094c1.7-0.075 2.869-0.35 3.882-0.744 2.151-0.832 3.851-2.532 4.682-4.682 0.394-1.019 0.669-2.182 0.744-3.882 0.075-1.707 0.094-2.251 0.094-6.595s-0.006-4.888-0.081-6.595zM29.087 22.473c-0.069 1.563-0.331 2.407-0.55 2.969-0.538 1.394-1.644 2.5-3.038 3.038-0.563 0.219-1.413 0.481-2.969 0.55-1.688 0.075-2.194 0.094-6.464 0.094s-4.782-0.019-6.464-0.094c-1.563-0.069-2.407-0.331-2.969-0.55-0.694-0.256-1.325-0.663-1.838-1.194-0.531-0.519-0.938-1.144-1.194-1.838-0.219-0.563-0.481-1.413-0.55-2.969-0.075-1.688-0.094-2.194-0.094-6.464s0.019-4.782 0.094-6.464c0.069-1.563 0.331-2.407 0.55-2.969 0.256-0.694 0.663-1.325 1.2-1.838 0.519-0.531 1.144-0.938 1.838-1.194 0.563-0.219 1.413-0.481 2.969-0.55 1.688-0.075 2.194-0.094 6.464-0.094 4.276 0 4.782 0.019 6.464 0.094 1.563 0.069 2.407 0.331 2.969 0.55 0.694 0.256 1.325 0.662 1.838 1.194 0.531 0.519 0.938 1.144 1.194 1.838 0.219 0.563 0.481 1.413 0.55 2.969 0.075 1.688 0.094 2.194 0.094 6.464s-0.019 4.77-0.094 6.458z"></path>
<path d="M16.059 7.783c-4.538 0-8.22 3.682-8.22 8.22s3.682 8.22 8.22 8.22c4.538 0 8.22-3.682 8.22-8.22s-3.682-8.22-8.22-8.22zM16.059 21.335c-2.944 0-5.332-2.388-5.332-5.332s2.388-5.332 5.332-5.332c2.944 0 5.332 2.388 5.332 5.332s-2.388 5.332-5.332 5.332z"></path>
<path d="M26.524 7.458c0 1.060-0.859 1.919-1.919 1.919s-1.919-0.859-1.919-1.919c0-1.060 0.859-1.919 1.919-1.919s1.919 0.859 1.919 1.919z"></path>
</symbol>
<symbol id="icon-facebook" viewBox="0 0 32 32">
<path d="M21.329 5.313h2.921v-5.088c-0.504-0.069-2.237-0.225-4.256-0.225-4.212 0-7.097 2.649-7.097 7.519v4.481h-4.648v5.688h4.648v14.312h5.699v-14.311h4.46l0.708-5.688h-5.169v-3.919c0.001-1.644 0.444-2.769 2.735-2.769z"></path>
</symbol>
<symbol id="icon-linkedin" viewBox="0 0 32 32">
<path d="M31.992 32v-0.001h0.008v-11.736c0-5.741-1.236-10.164-7.948-10.164-3.227 0-5.392 1.771-6.276 3.449h-0.093v-2.913h-6.364v21.364h6.627v-10.579c0-2.785 0.528-5.479 3.977-5.479 3.399 0 3.449 3.179 3.449 5.657v10.401h6.62z"></path>
<path d="M0.528 10.636h6.635v21.364h-6.635v-21.364z"></path>
<path d="M3.843 0c-2.121 0-3.843 1.721-3.843 3.843s1.721 3.879 3.843 3.879c2.121 0 3.843-1.757 3.843-3.879-0.001-2.121-1.723-3.843-3.843-3.843v0z"></path>
</symbol>
<symbol id="icon-subscribe" viewBox="0 0 32 32">
<path d="M17 32c-0.072 0-0.144-0.008-0.217-0.024-0.458-0.102-0.783-0.507-0.783-0.976v-15h-15c-0.469 0-0.875-0.326-0.976-0.783s0.129-0.925 0.553-1.123l30-14c0.381-0.178 0.833-0.098 1.13 0.199s0.377 0.749 0.199 1.13l-14 30c-0.167 0.358-0.524 0.577-0.906 0.577zM5.508 14h11.492c0.552 0 1 0.448 1 1v11.492l10.931-23.423-23.423 10.931z"></path>
</symbol>
<symbol id="icon-paper" viewBox="0 0 32 32">
<path d="M4.601 22.94c-0.115 0-0.225-0.046-0.306-0.127s-0.127-0.191-0.127-0.306v-15.905c0.019-1.057 0.455-2.064 1.211-2.802s1.773-1.149 2.83-1.142h18.448c0.115 0 0.225 0.046 0.306 0.127s0.127 0.191 0.127 0.306-0.046 0.225-0.127 0.306c-0.081 0.081-0.191 0.127-0.306 0.127h-18.448c-0.829-0.005-1.627 0.316-2.222 0.894s-0.937 1.367-0.955 2.196v15.895c0 0.115-0.046 0.225-0.127 0.306s-0.191 0.127-0.306 0.127z"></path>
<path d="M25.748 10.744h-2.699c-0.115 0-0.225-0.046-0.306-0.127s-0.127-0.191-0.127-0.306 0.046-0.225 0.127-0.306c0.081-0.081 0.191-0.127 0.306-0.127h1.764c-0.166-0.317-0.263-0.665-0.286-1.022s0.031-0.715 0.156-1.050h-1.635c-0.115 0-0.225-0.046-0.306-0.127s-0.127-0.191-0.127-0.306 0.046-0.225 0.127-0.306c0.081-0.081 0.191-0.127 0.306-0.127h2.319c0.078 0 0.155 0.021 0.222 0.061s0.122 0.098 0.159 0.166 0.055 0.146 0.051 0.224c-0.004 0.078-0.028 0.154-0.071 0.219-0.093 0.142-0.877 1.425 0.291 2.361 0.070 0.056 0.121 0.132 0.145 0.219s0.022 0.178-0.008 0.262-0.085 0.158-0.158 0.209c-0.073 0.052-0.16 0.080-0.25 0.080z"></path>
<path d="M23.049 26.223c-0.115 0-0.225-0.046-0.306-0.127s-0.127-0.191-0.127-0.306v-19.188c0-0.115 0.046-0.225 0.127-0.306s0.191-0.127 0.306-0.127 0.225 0.046 0.306 0.127c0.081 0.081 0.127 0.191 0.127 0.306v19.188c0 0.115-0.046 0.225-0.127 0.306s-0.191 0.127-0.306 0.127z"></path>
<path d="M3.716 29.342c-0.711-0-1.399-0.251-1.943-0.709-0.087-0.074-0.17-0.149-0.248-0.227-0.486-0.485-0.829-1.095-0.991-1.762s-0.137-1.366 0.073-2.020c0.21-0.654 0.596-1.237 1.116-1.686s1.153-0.745 1.831-0.857c0.023-0.004 0.047-0.006 0.070-0.006h16.496c0.109-0 0.213 0.041 0.293 0.114s0.129 0.175 0.138 0.283c0.009 0.108-0.023 0.216-0.090 0.302s-0.164 0.143-0.271 0.16c-0.52 0.086-1.007 0.315-1.405 0.659s-0.695 0.793-0.856 1.295c-0.161 0.502-0.18 1.039-0.056 1.551s0.388 0.981 0.761 1.353c0.061 0.061 0.125 0.119 0.19 0.173 0.373 0.314 0.84 0.494 1.328 0.509h0.080c0.338-0.004 0.672-0.082 0.977-0.228 0.42-0.192 0.776-0.5 1.025-0.888s0.382-0.84 0.382-1.301c0-0.115 0.046-0.225 0.127-0.306s0.191-0.127 0.306-0.127 0.225 0.046 0.306 0.127c0.081 0.081 0.127 0.191 0.127 0.306 0.001 0.626-0.177 1.239-0.515 1.766s-0.819 0.946-1.388 1.207c-0.414 0.196-0.865 0.301-1.323 0.307-0.016 0.002-0.033 0.003-0.049 0.003h-16.449c-0.013 0.001-0.027 0.002-0.041 0.002zM3.661 22.94c-0.516 0.092-0.998 0.324-1.392 0.671s-0.685 0.795-0.842 1.295c-0.157 0.501-0.174 1.035-0.048 1.544s0.388 0.975 0.76 1.345c0.061 0.061 0.127 0.12 0.192 0.176 0.378 0.318 0.854 0.496 1.348 0.506h14.415c-0.024-0.023-0.048-0.047-0.072-0.070-0.699-0.7-1.093-1.65-1.093-2.639s0.392-1.939 1.090-2.641c0.064-0.064 0.13-0.126 0.199-0.186l-14.557-0.001z"></path>
<path d="M26.657 10.744h-0.798c-0.115 0-0.225-0.046-0.306-0.127s-0.127-0.191-0.127-0.306 0.046-0.225 0.127-0.306c0.081-0.081 0.191-0.127 0.306-0.127h0.797c0.625 0 1.236-0.184 1.757-0.529s0.929-0.836 1.172-1.412c0.243-0.576 0.312-1.21 0.196-1.824s-0.409-1.181-0.845-1.629c-0.436-0.448-0.994-0.758-1.604-0.891s-1.247-0.082-1.829 0.145c-0.582 0.227-1.085 0.621-1.444 1.132s-0.561 1.117-0.578 1.741c-0.001 0.057-0.013 0.113-0.035 0.166s-0.056 0.099-0.097 0.139-0.090 0.070-0.143 0.090c-0.053 0.020-0.11 0.029-0.167 0.027s-0.113-0.014-0.165-0.037-0.099-0.056-0.138-0.097c-0.039-0.041-0.070-0.090-0.090-0.143s-0.030-0.11-0.029-0.166c0.021-0.795 0.276-1.566 0.733-2.217s1.096-1.152 1.837-1.442 1.55-0.354 2.328-0.186c0.777 0.168 1.488 0.562 2.043 1.132s0.929 1.291 1.076 2.072 0.061 1.589-0.249 2.322c-0.31 0.733-0.828 1.358-1.491 1.797s-1.441 0.674-2.236 0.673l-0 0.002z"></path>
<path d="M20.556 7.279h-13.005c-0.115 0-0.225-0.046-0.306-0.127s-0.127-0.191-0.127-0.306c0-0.115 0.046-0.225 0.127-0.306s0.191-0.127 0.306-0.127h13.005c0.115 0 0.225 0.046 0.306 0.127s0.127 0.191 0.127 0.306-0.046 0.225-0.127 0.306c-0.081 0.081-0.191 0.127-0.306 0.127z"></path>
<path d="M20.556 11.182h-3.475c-0.115 0-0.225-0.046-0.306-0.127s-0.127-0.191-0.127-0.306 0.046-0.225 0.127-0.306c0.081-0.081 0.191-0.127 0.306-0.127h3.475c0.115 0 0.225 0.046 0.306 0.127s0.127 0.191 0.127 0.306-0.046 0.225-0.127 0.306c-0.081 0.081-0.191 0.127-0.306 0.127z"></path>
<path d="M8.541 11.182h-0.989c-0.115 0-0.225-0.046-0.306-0.127s-0.127-0.191-0.127-0.306 0.046-0.225 0.127-0.306c0.081-0.081 0.191-0.127 0.306-0.127h0.989c0.115 0 0.225 0.046 0.306 0.127s0.127 0.191 0.127 0.306-0.046 0.225-0.127 0.306c-0.081 0.081-0.191 0.127-0.306 0.127z"></path>
<path d="M20.556 15.085h-3.295c-0.115 0-0.225-0.046-0.306-0.127s-0.127-0.191-0.127-0.306 0.046-0.225 0.127-0.306c0.081-0.081 0.191-0.127 0.306-0.127h3.295c0.115 0 0.225 0.046 0.306 0.127s0.127 0.191 0.127 0.306-0.046 0.225-0.127 0.306c-0.081 0.081-0.191 0.127-0.306 0.127z"></path>
<path d="M8.046 15.085h-0.495c-0.115 0-0.225-0.046-0.306-0.127s-0.127-0.191-0.127-0.306 0.046-0.225 0.127-0.306c0.081-0.081 0.191-0.127 0.306-0.127h0.495c0.115 0 0.225 0.046 0.306 0.127s0.127 0.191 0.127 0.306-0.046 0.225-0.127 0.306c-0.081 0.081-0.191 0.127-0.306 0.127z"></path>
<path d="M20.556 18.988h-0.466c-0.115 0-0.225-0.046-0.306-0.127s-0.127-0.191-0.127-0.306 0.046-0.225 0.127-0.306c0.081-0.081 0.191-0.127 0.306-0.127h0.466c0.115 0 0.225 0.046 0.306 0.127s0.127 0.191 0.127 0.306-0.046 0.225-0.127 0.306c-0.081 0.081-0.191 0.127-0.306 0.127z"></path>
<path d="M13.387 18.988h-5.838c-0.115 0-0.225-0.046-0.306-0.127s-0.127-0.191-0.127-0.306 0.046-0.225 0.127-0.306c0.081-0.081 0.191-0.127 0.306-0.127h5.838c0.115 0 0.225 0.046 0.306 0.127s0.127 0.191 0.127 0.306-0.046 0.225-0.127 0.306c-0.081 0.081-0.191 0.127-0.306 0.127z"></path>
<path d="M12.517 17.254c-0.591 0-1.173-0.146-1.694-0.424s-0.965-0.681-1.294-1.173c-0.328-0.491-0.53-1.056-0.588-1.644s0.030-1.181 0.256-1.727c0.226-0.546 0.583-1.028 1.040-1.402s0.999-0.631 1.579-0.746c0.58-0.115 1.178-0.086 1.744 0.086s1.080 0.48 1.497 0.898c0.503 0.502 0.845 1.143 0.984 1.839s0.068 1.419-0.205 2.076c-0.272 0.657-0.733 1.218-1.324 1.612s-1.286 0.605-1.996 0.605zM12.517 10.934c-0.631 0-1.243 0.219-1.731 0.619s-0.822 0.958-0.945 1.577c-0.123 0.619-0.028 1.262 0.27 1.819s0.779 0.993 1.362 1.235 1.232 0.273 1.836 0.090c0.604-0.183 1.126-0.57 1.477-1.095s0.509-1.155 0.447-1.783c-0.062-0.628-0.34-1.216-0.786-1.662-0.253-0.254-0.553-0.456-0.885-0.594s-0.686-0.208-1.045-0.207v0.001z"></path>
<path d="M11.668 14.093c-0.283 0-0.558-0.098-0.777-0.278s-0.369-0.43-0.424-0.708c-0.055-0.278-0.013-0.566 0.121-0.816s0.35-0.446 0.612-0.554c0.262-0.108 0.553-0.123 0.824-0.040s0.505 0.256 0.663 0.492c0.157 0.236 0.228 0.519 0.2 0.801s-0.153 0.546-0.353 0.746c-0.114 0.114-0.248 0.204-0.397 0.265s-0.307 0.093-0.468 0.093zM11.668 12.508c-0.083-0-0.164 0.029-0.229 0.082s-0.109 0.127-0.125 0.208c-0.016 0.082-0.004 0.167 0.036 0.24s0.103 0.131 0.18 0.163c0.077 0.032 0.163 0.036 0.243 0.012s0.149-0.075 0.195-0.145 0.067-0.153 0.059-0.236c-0.008-0.083-0.045-0.161-0.104-0.22-0.033-0.034-0.073-0.060-0.117-0.078s-0.091-0.027-0.138-0.027z"></path>
<path d="M17.257 20.327c-0.115 0-0.225-0.046-0.306-0.127l-3.367-3.367c-0.041-0.040-0.074-0.088-0.097-0.14s-0.035-0.11-0.035-0.167c-0.001-0.057 0.010-0.114 0.032-0.168s0.054-0.101 0.094-0.142c0.041-0.041 0.089-0.073 0.142-0.094s0.11-0.033 0.168-0.032c0.057 0 0.114 0.012 0.167 0.035s0.101 0.056 0.14 0.097l3.232 3.23 0.834-0.048 0.048-0.835-0.070-0.070-0.707-0.080c-0.097-0.011-0.188-0.055-0.257-0.124s-0.113-0.16-0.124-0.257l-0.059-0.515-0.514-0.058c-0.097-0.011-0.188-0.055-0.257-0.124s-0.113-0.16-0.124-0.257l-0.080-0.707-1.038-1.038c-0.079-0.082-0.122-0.191-0.121-0.304s0.046-0.222 0.127-0.302 0.189-0.126 0.302-0.127c0.113-0.001 0.223 0.043 0.304 0.121l1.143 1.144c0.069 0.069 0.113 0.16 0.124 0.257l0.059 0.515 0.515 0.058c0.097 0.011 0.188 0.055 0.257 0.124s0.113 0.16 0.124 0.257l0.059 0.516 0.516 0.059c0.097 0.011 0.188 0.055 0.257 0.124l0.314 0.314c0.043 0.043 0.077 0.095 0.098 0.152s0.031 0.118 0.027 0.179l-0.082 1.413c-0.006 0.106-0.051 0.206-0.126 0.281s-0.175 0.12-0.281 0.126l-1.437 0.083z"></path>
</symbol>
<symbol id="icon-home" viewBox="0 0 32 32">
<path d="M23.442 8.871c-0.116-0.116-0.277-0.183-0.442-0.183s-0.326 0.067-0.442 0.183-0.183 0.277-0.183 0.442c0 0.164 0.067 0.326 0.183 0.442s0.277 0.183 0.442 0.183c0.164 0 0.326-0.067 0.442-0.183s0.183-0.277 0.183-0.442c0-0.164-0.067-0.326-0.183-0.442z"></path>
<path d="M9.375 17.625h-5c-0.345 0-0.625 0.28-0.625 0.625v5c0 0.345 0.28 0.625 0.625 0.625h5c0.345 0 0.625-0.28 0.625-0.625v-5c0-0.345-0.28-0.625-0.625-0.625zM8.75 22.625h-3.75v-3.75h3.75v3.75z"></path>
<path d="M31.614 13.11c-0.233-0.097-0.502-0.043-0.681 0.135l-6.369 6.369c-0 0-0 0-0 0s-0 0-0 0l-7.424 7.424c-0 0-0 0-0 0s-0 0-0 0l-3.894 3.894c-0.179 0.179-0.232 0.448-0.135 0.681s0.325 0.386 0.577 0.386h17.688c0.345 0 0.625-0.28 0.625-0.625v-17.687c0-0.253-0.152-0.481-0.386-0.577zM30.75 30.75h-15.554l2.385-2.385 0.597 0.597c0.122 0.122 0.282 0.183 0.442 0.183s0.32-0.061 0.442-0.183c0.244-0.244 0.244-0.64 0-0.884l-0.597-0.597 1.591-1.591 0.597 0.597c0.122 0.122 0.282 0.183 0.442 0.183s0.32-0.061 0.442-0.183c0.244-0.244 0.244-0.64 0-0.884l-0.597-0.597 1.591-1.591 0.597 0.597c0.122 0.122 0.282 0.183 0.442 0.183s0.32-0.061 0.442-0.183c0.244-0.244 0.244-0.64 0-0.884l-0.597-0.597 1.591-1.591 0.597 0.597c0.122 0.122 0.282 0.183 0.442 0.183s0.32-0.061 0.442-0.183c0.244-0.244 0.244-0.64 0-0.884l-0.597-0.597 1.591-1.591 0.597 0.596c0.122 0.122 0.282 0.183 0.442 0.183s0.32-0.061 0.442-0.183c0.244-0.244 0.244-0.64 0-0.884l-0.597-0.597 2.385-2.385v15.554z"></path>
<path d="M28.489 20.655c-0.233-0.097-0.502-0.043-0.681 0.135l-7.018 7.018c-0.179 0.179-0.232 0.448-0.136 0.681s0.325 0.386 0.577 0.386h7.018c0.345 0 0.625-0.28 0.625-0.625v-7.018c0-0.253-0.152-0.481-0.386-0.577zM27.625 27.625h-4.884l4.884-4.884v4.884z"></path>
<path d="M28.941 9.329c-0.172-0.172-0.428-0.229-0.657-0.145l-4.268 1.563c-0.085 0.031-0.163 0.081-0.227 0.145l-1.2 1.2-7.835-7.835c-0.117-0.117-0.276-0.183-0.442-0.183s-0.325 0.066-0.442 0.183l-9.431 9.431h-2.305l12.178-12.179 6.683 6.683c0.244 0.244 0.64 0.244 0.884 0s0.244-0.64 0-0.884l-7.125-7.125c-0.244-0.244-0.64-0.244-0.884 0l-13.687 13.687c-0.179 0.179-0.232 0.448-0.136 0.681s0.325 0.386 0.577 0.386h0.625v16.437c0 0.345 0.28 0.625 0.625 0.625h9.937c0.345 0 0.625-0.28 0.625-0.625s-0.28-0.625-0.625-0.625h-9.312v-15.812h2.198c0.166 0 0.325-0.066 0.442-0.183l9.172-9.173 7.393 7.393-9.268 9.268v-5.619h4.375c0.345 0 0.625-0.28 0.625-0.625s-0.28-0.625-0.625-0.625h-5c-0.345 0-0.625 0.28-0.625 0.625v7.25c0 0.073 0.013 0.143 0.036 0.208l-0.56 0.56c-0.989 0.989-0.989 2.599 0 3.589 0.495 0.495 1.144 0.742 1.794 0.742s1.3-0.247 1.794-0.742l5.271-5.271c0.244-0.244 0.244-0.64 0-0.884s-0.64-0.244-0.884 0l-3.993 3.993-1.821-1.821 11.419-11.419 1.821 1.821-4.363 4.364c-0.244 0.244-0.244 0.64 0 0.884s0.64 0.244 0.884 0l4.793-4.793c0.064-0.064 0.114-0.142 0.145-0.227l1.563-4.268c0.084-0.229 0.027-0.485-0.145-0.657zM13.762 26.329l-0.394 0.394c-0.243 0.243-0.566 0.377-0.91 0.377s-0.667-0.134-0.91-0.377c-0.243-0.243-0.377-0.567-0.377-0.91s0.134-0.667 0.377-0.91l0.394-0.394 1.821 1.821zM26.693 12.886l-1.309-1.309 2.065-0.756-0.756 2.065z"></path>
<path d="M21.043 19.931c-0.116-0.116-0.277-0.183-0.442-0.183s-0.326 0.067-0.442 0.183c-0.116 0.117-0.183 0.278-0.183 0.442s0.067 0.326 0.183 0.442c0.116 0.116 0.277 0.183 0.442 0.183s0.326-0.066 0.442-0.183c0.116-0.117 0.183-0.278 0.183-0.442s-0.067-0.325-0.183-0.442z"></path>
<path d="M14.312 9.438c-1.31 0-2.375 1.065-2.375 2.375s1.065 2.375 2.375 2.375 2.375-1.065 2.375-2.375c0-1.31-1.065-2.375-2.375-2.375zM14.312 12.938c-0.62 0-1.125-0.505-1.125-1.125s0.505-1.125 1.125-1.125c0.62 0 1.125 0.505 1.125 1.125s-0.505 1.125-1.125 1.125z"></path>
</symbol>
<symbol id="icon-alarm" viewBox="0 0 32 32">
<path d="M15.914 5.076c-2.207-0-4.364 0.641-6.2 1.841s-3.265 2.906-4.11 4.902-1.066 4.193-0.635 6.312c0.431 2.119 1.493 4.066 3.054 5.593s3.549 2.568 5.713 2.99c2.165 0.421 4.408 0.205 6.447-0.622s3.782-2.227 5.008-4.023c1.226-1.796 1.881-3.908 1.88-6.069-0.003-2.896-1.18-5.673-3.272-7.72s-4.928-3.2-7.886-3.203zM25.197 16.426h0.995c-0.101 2.375-1.060 4.637-2.705 6.384l-0.7-0.685c-0.040-0.040-0.088-0.071-0.141-0.092s-0.109-0.032-0.167-0.032c-0.057 0-0.114 0.011-0.166 0.032s-0.101 0.053-0.141 0.092c-0.040 0.040-0.072 0.086-0.094 0.138s-0.033 0.107-0.033 0.163c0 0.056 0.011 0.111 0.033 0.163s0.054 0.099 0.094 0.138l0.7 0.685c-1.785 1.611-4.096 2.55-6.521 2.648v-0.974c0-0.113-0.046-0.221-0.128-0.301s-0.192-0.125-0.308-0.125c-0.115 0-0.226 0.045-0.308 0.125s-0.127 0.188-0.127 0.301v0.974c-2.426-0.099-4.737-1.037-6.521-2.648l0.7-0.685c0.040-0.040 0.072-0.086 0.094-0.138s0.033-0.107 0.033-0.163c0-0.056-0.011-0.111-0.033-0.163s-0.054-0.099-0.094-0.138c-0.040-0.040-0.088-0.071-0.141-0.092s-0.109-0.032-0.166-0.032c-0.057 0-0.114 0.011-0.167 0.032s-0.101 0.053-0.141 0.092l-0.7 0.685c-1.646-1.747-2.605-4.009-2.705-6.384h0.995c0.115 0 0.226-0.045 0.308-0.125s0.127-0.188 0.127-0.301c0-0.113-0.046-0.221-0.127-0.301s-0.192-0.125-0.308-0.125h-0.995c0.101-2.374 1.059-4.637 2.705-6.384l0.7 0.685c0.082 0.080 0.192 0.125 0.308 0.125s0.226-0.045 0.308-0.125 0.127-0.188 0.127-0.301c0-0.113-0.046-0.221-0.127-0.301l-0.7-0.685c1.785-1.611 4.096-2.55 6.521-2.648v0.974c0 0.113 0.046 0.221 0.127 0.301s0.192 0.125 0.308 0.125c0.115 0 0.226-0.045 0.308-0.125s0.128-0.188 0.128-0.301v-0.974c2.426 0.099 4.737 1.037 6.521 2.648l-0.7 0.685c-0.040 0.040-0.072 0.086-0.094 0.138s-0.033 0.107-0.033 0.163c0 0.056 0.011 0.111 0.033 0.163s0.054 0.099 0.094 0.138c0.040 0.040 0.088 0.071 0.141 0.092s0.109 0.032 0.166 0.032c0.057 0 0.114-0.011 0.167-0.032s0.101-0.053 0.141-0.092l0.7-0.685c1.646 1.747 2.605 4.009 2.705 6.384h-0.995c-0.115 0-0.226 0.045-0.308 0.125s-0.128 0.188-0.128 0.301c0 0.113 0.046 0.221 0.128 0.301s0.192 0.125 0.308 0.125h0.001z"></path>
<path d="M20.856 15.574h-2.747c-0.087-0.425-0.3-0.815-0.613-1.122s-0.712-0.516-1.146-0.601v-4.211c0-0.113-0.046-0.221-0.128-0.301s-0.192-0.125-0.308-0.125c-0.115 0-0.226 0.045-0.308 0.125s-0.127 0.188-0.127 0.301v4.211c-0.398 0.077-0.767 0.258-1.067 0.525s-0.522 0.608-0.64 0.987c-0.118 0.38-0.128 0.784-0.030 1.169s0.302 0.737 0.589 1.017 0.646 0.48 1.039 0.576c0.393 0.096 0.806 0.086 1.194-0.029s0.736-0.332 1.009-0.626c0.272-0.294 0.457-0.655 0.536-1.045h2.747c0.115 0 0.226-0.045 0.308-0.125s0.127-0.188 0.127-0.301c0-0.113-0.046-0.221-0.127-0.301s-0.192-0.125-0.308-0.125zM15.914 17.339c-0.27 0-0.535-0.078-0.76-0.226s-0.4-0.356-0.504-0.601c-0.104-0.245-0.131-0.514-0.078-0.774s0.183-0.498 0.374-0.685c0.191-0.187 0.435-0.315 0.7-0.366s0.54-0.025 0.79 0.076c0.25 0.101 0.463 0.273 0.614 0.493s0.23 0.479 0.23 0.744c-0 0.355-0.145 0.695-0.401 0.946s-0.604 0.392-0.967 0.392z"></path>
<path d="M31.126 2.598l-1.522-1.49c-0.448-0.437-1.054-0.683-1.687-0.683s-1.239 0.246-1.686 0.683l-1.194 1.168c-0.040 0.040-0.073 0.086-0.094 0.138s-0.033 0.107-0.033 0.163c0 0.056 0.011 0.111 0.033 0.163s0.054 0.099 0.094 0.138l1.129 1.105-1.674 1.638c-2.425-1.928-5.454-2.98-8.579-2.98s-6.153 1.052-8.579 2.98l-1.674-1.639 1.129-1.105c0.040-0.040 0.072-0.086 0.094-0.138s0.033-0.107 0.033-0.163c0-0.056-0.011-0.111-0.033-0.163s-0.054-0.099-0.094-0.138l-1.194-1.168c-0.448-0.437-1.054-0.683-1.687-0.683s-1.239 0.246-1.687 0.683l-1.522 1.49c-0.447 0.438-0.698 1.032-0.698 1.651s0.251 1.213 0.698 1.651l1.194 1.168c0.040 0.040 0.088 0.071 0.141 0.092s0.109 0.032 0.167 0.032c0.057 0 0.114-0.011 0.167-0.032s0.101-0.053 0.141-0.092l1.129-1.105 1.674 1.638c-2.094 2.524-3.172 5.711-3.032 8.96s1.49 6.336 3.794 8.678l-2.144 4.712c-0.080 0.176-0.114 0.369-0.099 0.561s0.080 0.377 0.187 0.539c0.107 0.162 0.254 0.295 0.427 0.387s0.367 0.14 0.564 0.14h1.089c0.228-0 0.452-0.065 0.643-0.187s0.343-0.295 0.436-0.499l1.6-3.514c2.146 1.294 4.617 1.979 7.137 1.979s4.991-0.685 7.137-1.979l1.599 3.514c0.093 0.204 0.244 0.377 0.436 0.499s0.414 0.186 0.642 0.187h1.089c0.197 0 0.391-0.048 0.564-0.14s0.32-0.225 0.427-0.387c0.107-0.162 0.171-0.347 0.187-0.539s-0.019-0.385-0.099-0.561l-2.144-4.712c2.304-2.342 3.653-5.429 3.794-8.678s-0.938-6.436-3.032-8.96l1.674-1.639 1.129 1.105c0.040 0.040 0.088 0.071 0.141 0.092s0.109 0.032 0.166 0.032c0.057 0 0.114-0.011 0.167-0.032s0.101-0.053 0.141-0.092l1.194-1.168c0.447-0.438 0.698-1.032 0.698-1.651s-0.251-1.213-0.698-1.651zM2.203 6.166l-0.885-0.868c-0.284-0.278-0.443-0.655-0.443-1.049s0.159-0.77 0.443-1.049l1.522-1.49c0.284-0.278 0.67-0.433 1.071-0.433s0.787 0.156 1.071 0.433l0.887 0.866-3.666 3.588zM4.255 5.362l0.791-0.775 1.629 1.595c-0.275 0.247-0.538 0.506-0.791 0.775l-1.629-1.595zM6.382 30.547c-0.024 0.054-0.064 0.099-0.115 0.131s-0.109 0.049-0.169 0.049h-1.089c-0.052 0-0.103-0.013-0.148-0.037s-0.084-0.059-0.112-0.102c-0.028-0.043-0.045-0.091-0.049-0.142s0.005-0.101 0.026-0.148l2.013-4.421c0.413 0.366 0.849 0.708 1.304 1.022l-1.66 3.647zM27.079 30.589c-0.028 0.043-0.067 0.078-0.112 0.102s-0.097 0.037-0.149 0.036h-1.089c-0.060-0-0.119-0.017-0.169-0.049s-0.090-0.078-0.115-0.131l-1.659-3.646c0.456-0.315 0.891-0.656 1.304-1.022l2.013 4.421c0.021 0.046 0.030 0.097 0.026 0.148s-0.022 0.099-0.051 0.142h0zM15.914 28.506c-2.527 0-4.997-0.733-7.097-2.108s-3.738-3.327-4.705-5.612c-0.967-2.285-1.22-4.8-0.727-7.226s1.71-4.654 3.496-6.403c1.787-1.749 4.063-2.94 6.541-3.423s5.047-0.235 7.381 0.712c2.334 0.947 4.329 2.549 5.733 4.606s2.153 4.475 2.153 6.948c-0.004 3.316-1.351 6.494-3.746 8.839s-5.642 3.663-9.029 3.667zM25.944 6.956c-0.253-0.269-0.517-0.527-0.791-0.775l1.629-1.595 0.791 0.775-1.629 1.595zM30.511 5.298l-0.886 0.868-3.666-3.588 0.887-0.866c0.284-0.278 0.67-0.433 1.071-0.433s0.787 0.156 1.071 0.433l1.522 1.49c0.284 0.278 0.443 0.655 0.443 1.049s-0.159 0.77-0.443 1.049h0.001z"></path>
</symbol>
<symbol id="icon-bar" viewBox="0 0 32 32">
<path d="M30.047 12.771h-5.626v17.354h-1.874v-13.267h-5.626v13.267h-1.874v-16.86h-5.626v16.86h-1.843v-9.348h-5.626v9.348h-1.953v1.875h32v-1.875h-1.953v-17.354zM5.703 22.652v1.875h-1.874v-1.875h1.874zM3.829 30.125v-3.723h1.874v3.723h-1.874zM13.171 15.14v1.875h-1.874v-1.875h1.874zM11.298 30.125v-11.235h1.874v11.235h-1.874zM20.671 18.733v1.875h-1.874v-1.875h1.874zM18.797 30.125v-7.642h1.874v7.642h-1.874zM28.171 14.646v1.875h-1.874v-1.875h1.874zM26.297 30.125v-11.729h1.874v11.729h-1.874z"></path>
<path d="M26.388 0v1.875h2.411l-8.639 8.64-7.157-7.158-12.995 12.996 1.327 1.325 11.668-11.669 7.157 7.157 9.965-9.965v2.419h1.876v-5.621h-5.612z"></path>
</symbol>
<symbol id="icon-marketing" viewBox="0 0 32 32">
<path d="M11.733 13.333v-11.733c0-0.907-0.693-1.6-1.6-1.6h-5.333c-0.907 0-1.6 0.693-1.6 1.6v11.733c0 0.907 0.693 1.6 1.6 1.6h5.333c0.907 0 1.6-0.693 1.6-1.6zM10.667 11.733h-6.4v-8.533h6.4v8.533zM4.8 1.067h5.333c0.32 0 0.533 0.213 0.533 0.533v0.533h-6.4v-0.533c0-0.32 0.213-0.533 0.533-0.533zM4.267 13.333v-0.533h6.4v0.533c0 0.32-0.213 0.533-0.533 0.533h-5.333c-0.32 0-0.533-0.213-0.533-0.533z"></path>
<path d="M9.92 7.467l-4.053-3.253v6.507l4.053-3.253zM6.933 6.453l1.28 1.013-1.28 1.013v-2.027z"></path>
<path d="M14.933 9.067c0-3.52 2.88-6.4 6.4-6.4 1.493 0 2.987 0.533 4.16 1.493l-1.173 1.173c-2.080-1.653-5.067-1.333-6.72 0.747-0.693 0.853-1.067 1.92-1.067 2.987h1.067c0-2.080 1.653-3.733 3.733-3.733 0.8 0 1.6 0.267 2.24 0.747l-1.173 1.173c-0.32-0.213-0.693-0.32-1.067-0.32-1.173 0-2.133 0.96-2.133 2.133h1.067c0-0.587 0.48-1.067 1.067-1.067 0.107 0 0.16 0 0.267 0.053l-0.64 0.64 0.747 0.747 0.64-0.64c0 0.107 0.053 0.16 0.053 0.267 0 0.587-0.48 1.067-1.067 1.067v1.067c1.173 0 2.133-0.96 2.133-2.133 0-0.373-0.107-0.747-0.32-1.067l1.173-1.173c1.227 1.653 0.906 4-0.747 5.227-0.64 0.48-1.44 0.747-2.24 0.747v1.067c2.667 0 4.8-2.133 4.8-4.8 0-1.067-0.373-2.133-1.067-2.987l1.12-1.12c2.293 2.667 1.973 6.72-0.747 9.014-1.12 0.96-2.614 1.493-4.107 1.493v1.067c4.107 0 7.467-3.307 7.467-7.467 0-1.813-0.64-3.52-1.813-4.907l0.96-0.96h2.453v-1.067h-2.133v-2.133h-1.067v2.453l-0.96 0.96c-3.147-2.667-7.84-2.347-10.56 0.747-1.173 1.387-1.813 3.093-1.813 4.907h1.067z"></path>
<path d="M26.133 19.733h-4.693l-10.133-3.733h-1.173c-0.907 0-1.6 0.693-1.6 1.6v10.667c0 0.907 0.693 1.6 1.6 1.6h1.173l10.133-4.267h1.493v4.8c0 0.907 0.693 1.6 1.6 1.6s1.6-0.693 1.6-1.6v-4.8c0.907 0 1.6-0.693 1.6-1.6v-2.667c0-0.907-0.693-1.6-1.6-1.6zM11.733 17.28l9.067 3.36v4.053l-9.067 3.84v-11.253zM9.6 28.267v-10.667c0-0.32 0.213-0.533 0.533-0.533h0.533v11.733h-0.533c-0.32 0-0.533-0.213-0.533-0.533zM25.067 30.4c0 0.32-0.213 0.533-0.533 0.533s-0.533-0.213-0.533-0.533v-4.8h1.067v4.8zM26.667 24c0 0.32-0.213 0.533-0.533 0.533h-4.267v-3.733h4.267c0.32 0 0.533 0.213 0.533 0.533v2.667z"></path>
<path d="M5.333 21.867h2.133v1.067h-2.133v-1.067z"></path>
<path d="M5.497 17.985l0.754-0.754 1.584 1.584-0.754 0.754-1.584-1.584z"></path>
<path d="M5.497 26.815l1.584-1.584 0.754 0.754-1.584 1.584-0.754-0.754z"></path>
<path d="M13.867 10.187v0.533c0 3.2 2.613 5.813 5.813 5.813h0.587v-6.4h-5.867l-0.533 0.053zM19.2 11.2v4.267c-2.24-0.213-4-2.027-4.213-4.267h4.213z"></path>
<path d="M12.8 1.6h3.2v1.067h-3.2v-1.067z"></path>
<path d="M29.867 11.2v10.133c0 0.32-0.213 0.533-0.533 0.533h-0.533v1.067h0.533c0.907 0 1.6-0.693 1.6-1.6v-10.133h-1.067z"></path>
<path d="M2.133 21.333v-10.133h-1.067v10.133c0 0.907 0.693 1.6 1.6 1.6h1.6v-1.067h-1.6c-0.32 0-0.533-0.213-0.533-0.533z"></path>
</symbol>
<symbol id="icon-display" viewBox="0 0 32 32">
<path d="M30.4 0.023h-28.8c-0.884 0-1.6 0.716-1.6 1.6v19.2c0 0.884 0.716 1.6 1.6 1.6h9.067c1.472 0.002 2.665 1.195 2.667 2.667-0.003 1.472-1.195 2.664-2.667 2.667-0.007 0-0.013 0.004-0.021 0.004-0.039 0.003-0.077 0.011-0.114 0.023-0.030 0.006-0.059 0.014-0.087 0.024-0.031 0.017-0.060 0.036-0.087 0.058-0.028 0.018-0.054 0.038-0.078 0.060-0.020 0.024-0.038 0.049-0.053 0.076-0.023 0.031-0.042 0.065-0.057 0.101 0 0.006-0.007 0.011-0.010 0.018l-1.067 3.2c-0.093 0.28 0.058 0.582 0.337 0.675 0.055 0.018 0.112 0.027 0.17 0.027h12.8c0.294-0 0.533-0.239 0.533-0.534 0-0.057-0.009-0.114-0.027-0.168l-1.067-3.2c0-0.007-0.007-0.011-0.010-0.018-0.015-0.035-0.035-0.069-0.058-0.1-0.016-0.027-0.033-0.053-0.053-0.077-0.024-0.022-0.050-0.043-0.078-0.060-0.027-0.022-0.056-0.042-0.087-0.058-0.028-0.010-0.057-0.018-0.087-0.024-0.037-0.012-0.075-0.020-0.114-0.023-0.008 0-0.013-0.004-0.021-0.004-1.472-0.003-2.664-1.195-2.667-2.667 0.002-1.472 1.195-2.665 2.667-2.667h9.068c0.884 0 1.6-0.716 1.6-1.6v-19.2c0-0.884-0.716-1.6-1.6-1.6zM17.6 25.090c0.003 1.909 1.443 3.51 3.342 3.712l0.718 2.154h-11.319l0.718-2.154c1.898-0.203 3.339-1.803 3.342-3.712 0-1.004-0.406-1.966-1.126-2.667h5.452c-0.72 0.7-1.126 1.662-1.126 2.667zM30.933 20.823c0 0.294-0.239 0.533-0.533 0.533h-28.8c-0.295 0-0.533-0.239-0.533-0.533v-1.6h29.867v1.6zM1.067 18.156v-16.533c0-0.295 0.239-0.533 0.533-0.533h28.8c0.295 0 0.533 0.239 0.533 0.533v16.533h-29.867z"></path>
<path d="M22.569 8.051l-1.535-0.512 0.724-1.449c0.103-0.205 0.062-0.453-0.1-0.615l-1.508-1.508c-0.162-0.162-0.41-0.203-0.615-0.1l-1.449 0.724-0.512-1.536c-0.072-0.218-0.276-0.364-0.506-0.365h-2.133c-0.229 0-0.433 0.147-0.505 0.365l-0.512 1.536-1.449-0.724c-0.205-0.103-0.453-0.062-0.615 0.1l-1.508 1.508c-0.162 0.162-0.203 0.41-0.1 0.615l0.724 1.449-1.535 0.512c-0.218 0.072-0.365 0.276-0.365 0.505v2.133c0 0.229 0.147 0.433 0.365 0.505l1.535 0.512-0.724 1.449c-0.102 0.205-0.062 0.453 0.1 0.616l1.508 1.508c0.162 0.162 0.41 0.203 0.615 0.1l1.449-0.724 0.512 1.535c0.072 0.218 0.276 0.365 0.505 0.365h2.133c0.229-0 0.433-0.147 0.506-0.365l0.512-1.535 1.448 0.724c0.205 0.102 0.453 0.062 0.615-0.1l1.508-1.508c0.162-0.162 0.203-0.41 0.1-0.616l-0.724-1.449 1.535-0.512c0.218-0.072 0.365-0.276 0.365-0.505v-2.133c-0-0.229-0.147-0.433-0.365-0.505zM21.867 10.305l-1.755 0.587c-0.279 0.093-0.43 0.396-0.337 0.675 0.008 0.024 0.017 0.047 0.029 0.069l0.827 1.653-0.965 0.965-1.653-0.827c-0.263-0.133-0.584-0.027-0.717 0.236-0.012 0.023-0.022 0.048-0.030 0.073l-0.584 1.755h-1.364l-0.587-1.755c-0.093-0.279-0.395-0.43-0.675-0.337-0.024 0.008-0.047 0.017-0.069 0.029l-1.653 0.827-0.965-0.965 0.827-1.653c0.132-0.264 0.024-0.584-0.239-0.715-0.023-0.011-0.046-0.021-0.069-0.029l-1.755-0.587v-1.364l1.755-0.587c0.279-0.093 0.43-0.395 0.337-0.675-0.008-0.024-0.017-0.047-0.029-0.069l-0.827-1.653 0.965-0.965 1.653 0.827c0.264 0.132 0.584 0.025 0.715-0.239 0.011-0.022 0.021-0.045 0.029-0.069l0.587-1.755h1.364l0.587 1.755c0.093 0.28 0.394 0.431 0.674 0.338 0.025-0.008 0.049-0.018 0.073-0.030l1.653-0.827 0.965 0.965-0.827 1.653c-0.131 0.264-0.024 0.584 0.239 0.715 0.023 0.011 0.046 0.021 0.069 0.029l1.755 0.587-0.003 1.364z"></path>
<path d="M16 6.423c-1.767 0-3.2 1.433-3.2 3.2s1.433 3.2 3.2 3.2c1.767 0 3.2-1.433 3.2-3.2-0.002-1.767-1.433-3.198-3.2-3.2zM16 11.756c-1.178 0-2.133-0.955-2.133-2.133s0.955-2.133 2.133-2.133c1.178 0 2.133 0.955 2.133 2.133s-0.955 2.133-2.133 2.133z"></path>
</symbol>
</defs>
</svg>
